<svg width="50" height="50" viewBox="0 0 50 50" fill="none" xmlns="http://www.w3.org/2000/svg">
<path d="M39.4302 26.1641C39.4279 26.1515 39.4246 26.1391 39.4205 26.127C39.418 26.1188 39.4148 26.111 39.4107 26.1035C38.7946 24.2333 37.8656 22.4812 36.6632 20.9219C36.6581 20.9165 36.6535 20.9106 36.6496 20.9043V20.9023C36.5851 20.8203 36.5226 20.7383 36.4581 20.6582L36.4347 20.627C36.1534 20.2705 35.9018 19.8916 35.6824 19.4941C35.9907 19.3884 36.2584 19.1892 36.4481 18.9242C36.6378 18.6592 36.7402 18.3416 36.741 18.0156V14.1094C36.7413 14.0963 36.7406 14.0833 36.739 14.0703C36.7288 13.6629 36.5599 13.2756 36.2682 12.991C35.9765 12.7064 35.5852 12.5471 35.1777 12.5469H34.3746C34.6033 8.04102 36.233 2.55859 36.2496 2.50195C36.2676 2.44398 36.2716 2.38253 36.2611 2.32272C36.2505 2.26292 36.2258 2.2065 36.189 2.1582C36.153 2.10911 36.106 2.0692 36.0517 2.04171C35.9974 2.01423 35.9374 1.99993 35.8765 2H13.3738C13.3131 2.00018 13.2532 2.01452 13.199 2.04186C13.1448 2.06921 13.0977 2.10882 13.0615 2.15754C13.0253 2.20626 13.0009 2.26276 12.9903 2.32254C12.9797 2.38233 12.9832 2.44376 13.0005 2.50195C13.0181 2.55859 14.6478 8.03906 14.8755 12.5469H12.9007C12.7972 12.5472 12.698 12.5884 12.6249 12.6616C12.5517 12.7348 12.5104 12.834 12.5101 12.9375V15.1875C11.7047 15.5017 11.0127 16.0515 10.5246 16.7651C10.0365 17.4787 9.775 18.3229 9.77417 19.1875V24.2656C9.77448 24.3691 9.81573 24.4683 9.88892 24.5415C9.96211 24.6147 10.0613 24.6559 10.1648 24.6562H10.3857C10.1806 25.1289 9.99878 25.6113 9.84057 26.0996C9.8355 26.1082 9.83156 26.1174 9.82885 26.127C9.82469 26.1391 9.82143 26.1515 9.81909 26.1641C7.78784 32.4727 9.53764 40.0391 15.0339 48.6934C15.0693 48.7489 15.1181 48.7946 15.1759 48.8264C15.2336 48.8581 15.2983 48.8748 15.3642 48.875H33.8853C33.9512 48.8748 34.0159 48.8581 34.0736 48.8264C34.1314 48.7946 34.1802 48.7489 34.2156 48.6934C39.7189 40.0273 41.4615 32.4785 39.4302 26.1641ZM24.6236 43.0313C24.2329 40.8857 23.5484 38.8043 22.5894 36.8457C23.2342 37.1177 23.9273 37.2565 24.6271 37.2539C25.3269 37.2512 26.019 37.107 26.6617 36.8301C25.7002 38.7935 25.0144 40.8803 24.6236 43.0313ZM10.5558 23.875V23.0938H13.6824V23.875H10.5558ZM36.3566 23.5762C35.788 23.8418 35.2134 24.0898 34.6449 24.3164C34.5991 24.3356 34.55 24.3456 34.5003 24.3457C34.4222 24.3453 34.3459 24.3216 34.2812 24.2778C34.2165 24.234 34.1663 24.172 34.1369 24.0996C34.1178 24.0519 34.1084 24.0009 34.1091 23.9495C34.1098 23.8982 34.1207 23.8475 34.141 23.8003C34.1613 23.7531 34.1908 23.7104 34.2276 23.6747C34.2645 23.6389 34.3081 23.6107 34.3558 23.5918C34.9087 23.3711 35.4716 23.127 36.0246 22.8672C36.1186 22.8232 36.2262 22.8183 36.3238 22.8536C36.4215 22.889 36.501 22.9616 36.5451 23.0557C36.5891 23.1497 36.594 23.2573 36.5586 23.355C36.5233 23.4526 36.4506 23.5321 36.3566 23.5762ZM32.8919 24.9551C32.2978 25.1504 31.6941 25.3281 31.0999 25.4805C31.0683 25.4899 31.0353 25.4945 31.0023 25.4941C30.9067 25.4948 30.8143 25.4604 30.7423 25.3975C30.6704 25.3346 30.6241 25.2475 30.612 25.1527C30.6 25.0579 30.6231 24.962 30.6771 24.8831C30.731 24.8042 30.8119 24.7478 30.9046 24.7246C31.4832 24.5762 32.0693 24.4043 32.6478 24.2129C32.7462 24.1805 32.8535 24.1885 32.946 24.2352C33.0385 24.2819 33.1087 24.3634 33.1411 24.4618C33.1735 24.5602 33.1654 24.6675 33.1188 24.76C33.0721 24.8525 32.9904 24.9227 32.8919 24.9551ZM21.8708 26.1641C21.8552 26.1641 21.8415 26.1621 21.8259 26.1621C21.2124 26.0918 20.589 26 19.9753 25.8867C19.9234 25.8791 19.8735 25.861 19.8287 25.8336C19.7839 25.8062 19.745 25.7701 19.7145 25.7274C19.684 25.6846 19.6623 25.6362 19.651 25.5849C19.6396 25.5336 19.6387 25.4806 19.6483 25.4289C19.6579 25.3773 19.6778 25.3281 19.7068 25.2844C19.7358 25.2406 19.7734 25.2031 19.8172 25.1742C19.8611 25.1453 19.9103 25.1255 19.962 25.116C20.0136 25.1066 20.0667 25.1076 20.1179 25.1191C20.714 25.2285 21.3177 25.3184 21.9119 25.3848C22.0118 25.3948 22.104 25.4429 22.1694 25.5191C22.2347 25.5953 22.2683 25.6937 22.263 25.794C22.2577 25.8942 22.214 25.9886 22.141 26.0575C22.068 26.1264 21.9712 26.1646 21.8708 26.1641ZM23.315 25.8945C23.3201 25.7912 23.3656 25.6941 23.4416 25.624C23.5176 25.5538 23.6181 25.5163 23.7214 25.5195C24.3212 25.541 24.931 25.541 25.533 25.5176C25.5843 25.5157 25.6354 25.5239 25.6836 25.5417C25.7317 25.5596 25.7758 25.5867 25.8135 25.6216C25.8511 25.6565 25.8815 25.6985 25.9029 25.7452C25.9243 25.7918 25.9363 25.8423 25.9382 25.8936C25.9402 25.9449 25.932 25.996 25.9141 26.0442C25.8962 26.0923 25.8691 26.1364 25.8342 26.1741C25.7993 26.2117 25.7573 26.2421 25.7106 26.2635C25.664 26.2849 25.6136 26.2969 25.5623 26.2988C25.2457 26.3105 24.9251 26.3164 24.6085 26.3164C24.3037 26.3164 23.9951 26.3105 23.6921 26.2988C23.5885 26.2952 23.4905 26.2505 23.4196 26.1748C23.3488 26.099 23.3109 25.9982 23.3142 25.8945H23.315ZM26.9964 25.8145C26.9904 25.7635 26.9945 25.7118 27.0085 25.6624C27.0226 25.6131 27.0463 25.567 27.0783 25.5268C27.1103 25.4867 27.1499 25.4533 27.1949 25.4286C27.2399 25.4038 27.2893 25.3883 27.3404 25.3828C27.9363 25.3164 28.5402 25.2266 29.1343 25.1172C29.1856 25.1057 29.2386 25.1046 29.2903 25.1141C29.3419 25.1235 29.3912 25.1433 29.435 25.1722C29.4788 25.2012 29.5164 25.2386 29.5454 25.2824C29.5745 25.3262 29.5944 25.3753 29.604 25.427C29.6136 25.4786 29.6126 25.5317 29.6013 25.5829C29.5899 25.6342 29.5683 25.6827 29.5378 25.7254C29.5072 25.7681 29.4684 25.8043 29.4236 25.8317C29.3787 25.859 29.3289 25.8771 29.2769 25.8848C28.6632 25.998 28.0419 26.0898 27.4283 26.1582C27.4134 26.1605 27.3984 26.1618 27.3833 26.1621C27.2873 26.1619 27.1947 26.1264 27.1232 26.0622C27.0518 25.9981 27.0064 25.9099 26.9958 25.8145H26.9964ZM18.6271 25.2012C18.6055 25.2848 18.5568 25.359 18.4885 25.412C18.4203 25.465 18.3364 25.4939 18.2499 25.4941C18.2163 25.4944 18.1827 25.4898 18.1503 25.4805C17.5564 25.3281 16.9525 25.1504 16.3583 24.9551C16.2599 24.9224 16.1785 24.852 16.132 24.7593C16.0855 24.6666 16.0777 24.5593 16.1104 24.4608C16.1431 24.3624 16.2135 24.281 16.3062 24.2345C16.3989 24.188 16.5062 24.1802 16.6046 24.2129C17.183 24.4023 17.7693 24.5762 18.3478 24.7246C18.4479 24.7509 18.5334 24.8159 18.5856 24.9053C18.6379 24.9946 18.6525 25.101 18.6263 25.2012H18.6271ZM35.7294 20.9941C28.6712 24.2363 21.5191 24.377 14.4648 21.4082V19.5781H34.8415C35.0947 20.0755 35.3916 20.5494 35.7287 20.9941H35.7294ZM35.9593 18.0156C35.959 18.2227 35.8766 18.4213 35.7302 18.5677C35.5837 18.7142 35.3852 18.7966 35.1781 18.7969H14.4857C14.5609 18.1409 14.8185 17.5192 15.2294 17.0023C15.6402 16.4855 16.1878 16.0942 16.8099 15.873V17.2344C16.8099 17.338 16.8511 17.4373 16.9243 17.5106C16.9976 17.5838 17.0969 17.625 17.2005 17.625C17.3041 17.625 17.4035 17.5838 17.4767 17.5106C17.55 17.4373 17.5912 17.338 17.5912 17.2344V15.6934C17.7209 15.6793 17.8513 15.6721 17.9818 15.6719H19.9359V16.4531C19.9359 16.5567 19.977 16.6561 20.0503 16.7293C20.1236 16.8026 20.2229 16.8438 20.3265 16.8438C20.4301 16.8438 20.5295 16.8026 20.6027 16.7293C20.676 16.6561 20.7171 16.5567 20.7171 16.4531V15.6719H23.063V17.2344C23.063 17.338 23.1042 17.4373 23.1774 17.5106C23.2507 17.5838 23.3501 17.625 23.4537 17.625C23.5573 17.625 23.6566 17.5838 23.7299 17.5106C23.8031 17.4373 23.8443 17.338 23.8443 17.2344V15.6719H26.188V16.4531C26.188 16.5567 26.2292 16.6561 26.3024 16.7293C26.3757 16.8026 26.4751 16.8438 26.5787 16.8438C26.6823 16.8438 26.7816 16.8026 26.8549 16.7293C26.9281 16.6561 26.9693 16.5567 26.9693 16.4531V15.6719H29.3142V17.2344C29.3142 17.338 29.3554 17.4373 29.4286 17.5106C29.5019 17.5838 29.6012 17.625 29.7048 17.625C29.8084 17.625 29.9078 17.5838 29.981 17.5106C30.0543 17.4373 30.0955 17.338 30.0955 17.2344V15.6719H32.4419V16.4531C32.4419 16.5567 32.4831 16.6561 32.5564 16.7293C32.6296 16.8026 32.729 16.8438 32.8326 16.8438C32.9362 16.8438 33.0355 16.8026 33.1088 16.7293C33.182 16.6561 33.2232 16.5567 33.2232 16.4531V15.6719H35.1773C35.4518 15.6722 35.7215 15.5994 35.9585 15.4609L35.9593 18.0156ZM13.8915 2.78125H35.3593C34.9353 4.30859 33.7062 9.02148 33.5792 12.8984C33.5776 12.9114 33.5769 12.9244 33.5773 12.9375C33.5566 13.5888 33.5696 14.2407 33.6164 14.8906H15.6345C15.6812 14.2407 15.6943 13.5888 15.6736 12.9375C15.674 12.9244 15.6733 12.9114 15.6716 12.8984C15.5447 9.02148 14.3156 4.30859 13.8915 2.78125ZM10.5558 19.1875C10.5571 18.2552 10.9282 17.3615 11.5876 16.7024C12.247 16.0433 13.1409 15.6727 14.0732 15.6719H15.5154C15.2227 15.8754 14.9574 16.1156 14.7259 16.3867C14.722 16.3887 14.722 16.3887 14.722 16.3906C14.7079 16.4053 14.6948 16.4209 14.683 16.4375C14.6791 16.4414 14.6751 16.4434 14.6751 16.4473C14.0419 17.2057 13.6917 18.1605 13.6843 19.1484C13.6827 19.1614 13.682 19.1744 13.6824 19.1875V22.3125H10.5558V19.1875ZM10.4582 26.752C15.0079 28.5221 18.8182 31.7904 21.2605 36.0176C21.2777 36.0667 21.3035 36.1123 21.3367 36.1523C21.3386 36.1543 21.3406 36.1543 21.3406 36.1563C22.8042 38.75 23.9083 41.9922 24.2326 46.0195C24.1798 46.6895 24.1492 47.3809 24.1408 48.0938H15.5798C10.4068 39.8848 8.69175 32.7207 10.4582 26.752ZM33.671 48.0938H24.9224C24.9322 47.3926 24.9615 46.7129 25.0162 46.0547C25.0148 46.0442 25.0155 46.0336 25.0181 46.0234C25.3386 41.9922 26.4439 38.748 27.9042 36.1523C27.9079 36.1504 27.9113 36.1477 27.914 36.1445C27.9601 36.0967 27.9925 36.0373 28.0078 35.9727C30.4526 31.7664 34.2541 28.5158 38.789 26.7539C40.5513 32.7344 38.8415 39.8848 33.671 48.0938Z" fill="#B82B2B"/>
</svg>
