<svg width="45" height="45" viewBox="0 0 45 45" fill="none" xmlns="http://www.w3.org/2000/svg">
<path d="M29 15C29 18.5899 26.0899 21.5 22.5 21.5C18.9101 21.5 16 18.5899 16 15C16 11.4101 18.9101 8.5 22.5 8.5C26.0899 8.5 29 11.4101 29 15Z" stroke="black" stroke-width="2"/>
<path d="M36.5 36.5H8.5V33.9997C8.51187 33.9787 8.52486 33.9562 8.53897 33.932C8.64319 33.7535 8.80866 33.4892 9.04336 33.1673C9.51302 32.5232 10.2573 31.6523 11.3395 30.7778C13.4902 29.0398 17.0205 27.25 22.5 27.25C27.9795 27.25 31.5098 29.0398 33.6605 30.7778C34.7427 31.6523 35.487 32.5232 35.9566 33.1673C36.1913 33.4892 36.3568 33.7535 36.461 33.932C36.4751 33.9562 36.4881 33.9787 36.5 33.9997V36.5Z" stroke="black" stroke-width="2"/>
</svg>
