<svg width="36" height="36" viewBox="0 0 36 36" fill="none" xmlns="http://www.w3.org/2000/svg">
<g clip-path="url(#clip0_1_9)">
<path d="M33.0007 3.375H28.125V1.125C28.125 0.502875 27.6221 0 27 0C26.3779 0 25.875 0.502875 25.875 1.125V3.375H19.125V1.125C19.125 0.502875 18.621 0 18 0C17.379 0 16.875 0.502875 16.875 1.125V3.375H10.125V1.125C10.125 0.502875 9.621 0 9 0C8.379 0 7.875 0.502875 7.875 1.125V3.375H3.00038C1.34325 3.375 0 4.71712 0 6.37425V32.9996C0 34.6568 1.34325 36 3.00038 36H33.0007C34.6579 36 36 34.6568 36 32.9996V6.37425C36 4.71712 34.6579 3.375 33.0007 3.375ZM33.75 32.9996C33.75 33.4136 33.4136 33.75 33.0007 33.75H3.00038C2.58638 33.75 2.25 33.4136 2.25 32.9996V6.37425C2.25 5.96137 2.58638 5.625 3.00038 5.625H7.875V7.875C7.875 8.49712 8.379 9 9 9C9.621 9 10.125 8.49712 10.125 7.875V5.625H16.875V7.875C16.875 8.49712 17.379 9 18 9C18.621 9 19.125 8.49712 19.125 7.875V5.625H25.875V7.875C25.875 8.49712 26.3779 9 27 9C27.6221 9 28.125 8.49712 28.125 7.875V5.625H33.0007C33.4136 5.625 33.75 5.96137 33.75 6.37425V32.9996Z" fill="#333332"/>
<path d="M12.375 13.5H7.875V16.875H12.375V13.5Z" fill="#333332"/>
<path d="M12.375 19.125H7.875V22.5H12.375V19.125Z" fill="#333332"/>
<path d="M12.375 24.75H7.875V28.125H12.375V24.75Z" fill="#333332"/>
<path d="M20.25 24.75H15.75V28.125H20.25V24.75Z" fill="#333332"/>
<path d="M20.25 19.125H15.75V22.5H20.25V19.125Z" fill="#333332"/>
<path d="M20.25 13.5H15.75V16.875H20.25V13.5Z" fill="#333332"/>
<path d="M28.125 24.75H23.625V28.125H28.125V24.75Z" fill="#333332"/>
<path d="M28.125 19.125H23.625V22.5H28.125V19.125Z" fill="#333332"/>
<path d="M28.125 13.5H23.625V16.875H28.125V13.5Z" fill="#333332"/>
</g>
<defs>
<clipPath id="clip0_1_9">
<rect width="36" height="36" fill="white"/>
</clipPath>
</defs>
</svg>
