<svg width="50" height="50" viewBox="0 0 50 50" fill="none" xmlns="http://www.w3.org/2000/svg">
<path d="M50 21.5H46.457C46.2605 20.4585 45.347 19.5 44.249 19.5H42.749C42.6635 19.5 42.5 19.183 42.5 19.1925V15.917C42.5 14.6765 41.4895 13.5 40.249 13.5H36.749C35.5085 13.5 34.5 14.6765 34.5 15.917V21.5H15.5V15.917C15.5 14.6765 14.4895 13.5 13.249 13.5H9.749C8.5085 13.5 7.5 14.6765 7.5 15.917V19.2235C7.5 19.214 7.3345 19.5 7.249 19.5H5.749C4.662 19.5 3.7525 20.4735 3.5445 21.5H0V28.5H3.504C3.5325 29.7165 4.526 30.5 5.749 30.5H7.249C7.3345 30.5 7.5 30.6825 7.5 30.673V34.417C7.5 35.6575 8.5085 36.5 9.749 36.5H13.249C14.4895 36.5 15.5 35.6575 15.5 34.417V28.5H34.5V34.417C34.5 35.6575 35.5085 36.5 36.749 36.5H40.249C41.4895 36.5 42.5 35.6575 42.5 34.417V30.6415C42.5 30.651 42.6635 30.5 42.749 30.5H44.249C45.4615 30.5 46.446 29.7015 46.4905 28.5H50V21.5ZM2 23.5H3.5V26.5H2V23.5ZM7.5 28.25C7.5 28.388 7.388 28.5 7.25 28.5H5.75C5.612 28.5 5.5 28.388 5.5 28.25V21.75C5.5 21.612 5.612 21.5 5.75 21.5H7.25C7.388 21.5 7.5 21.612 7.5 21.75V28.25ZM13.5 34.417C13.5 34.5525 13.3845 34.5 13.249 34.5H9.749C9.6135 34.5 9.5 34.5525 9.5 34.417V28.448V21.948V15.917C9.5 15.7815 9.6135 15.5 9.749 15.5H13.249C13.3845 15.5 13.5 15.7815 13.5 15.917V34.417ZM15.5 26.5V23.5H34.5V26.5H15.5ZM40.5 34.417C40.5 34.5525 40.3845 34.5 40.249 34.5H36.749C36.6135 34.5 36.5 34.5525 36.5 34.417V15.917C36.5 15.7815 36.6135 15.5 36.749 15.5H40.249C40.3845 15.5 40.5 15.7815 40.5 15.917V21.917V28.417V34.417ZM44.5 28.25C44.5 28.388 44.388 28.5 44.25 28.5H42.75C42.612 28.5 42.5 28.388 42.5 28.25V21.75C42.5 21.612 42.612 21.5 42.75 21.5H44.25C44.388 21.5 44.5 21.612 44.5 21.75V28.25ZM48 26.5H46.5V23.5H48V26.5Z" fill="#231F20"/>
</svg>
